<?xml version="1.0" encoding="UTF-8" standalone="no"?>
<!DOCTYPE svg PUBLIC "-//W3C//DTD SVG 1.1//EN" "http://www.w3.org/Graphics/SVG/1.1/DTD/svg11.dtd">
<svg width="100%" height="100%" viewBox="0 0 404 34" version="1.1" xmlns="http://www.w3.org/2000/svg" xmlns:xlink="http://www.w3.org/1999/xlink" xml:space="preserve" xmlns:serif="http://www.serif.com/" style="fill-rule:evenodd;clip-rule:evenodd;stroke-linejoin:round;stroke-miterlimit:2;">
    <g transform="matrix(1.10024,0,0,1.10024,-87.2004,-1638.85)">
        <g transform="matrix(2,0,0,2,0,1422.9)">
            <rect x="39.628" y="33.433" width="6.7" height="13.685" style="fill:rgb(239,63,54);"/>
        </g>
        <g transform="matrix(2,0,0,2,106.875,1491.91)">
            <path d="M0,11.564C0,11.564 -0.059,9.273 -0.059,9.102C-0.059,8.873 0.056,8.818 0.285,8.873C0.514,8.873 2.575,9.273 2.575,9.273C2.575,9.273 2.519,8.873 2.347,8.529C2.29,8.13 2.347,8.072 2.519,8.015C2.575,7.956 4.866,5.954 4.866,5.954L4.408,5.724C4.293,5.667 4.293,5.438 4.293,5.266C4.293,5.207 4.694,3.778 4.694,3.778C4.694,3.778 3.72,4.064 3.493,4.064C3.263,4.064 3.206,4.064 3.148,3.949C3.148,3.72 2.862,3.205 2.862,3.205C2.862,3.205 1.716,4.579 1.661,4.579C1.431,4.808 1.202,4.579 1.202,4.351C1.259,4.12 1.831,1.43 1.831,1.43C1.831,1.43 1.202,1.774 0.972,1.946C0.8,2.059 0.629,2.003 0.572,1.774C0.4,1.661 -0.286,0 -0.286,0C-0.286,0 -1.089,1.661 -1.146,1.774C-1.319,2.003 -1.375,2.059 -1.661,1.946C-1.89,1.774 -2.52,1.43 -2.52,1.43C-2.52,1.43 -1.947,4.12 -1.89,4.351C-1.89,4.579 -2.005,4.808 -2.291,4.579L-3.493,3.205C-3.493,3.205 -3.723,3.72 -3.78,3.949C-3.895,4.064 -4.009,4.064 -4.181,4.064C-4.352,4.064 -5.441,3.778 -5.441,3.778C-5.441,3.778 -5.04,5.207 -4.925,5.266C-4.868,5.438 -4.868,5.667 -5.155,5.724L-5.441,5.954C-5.441,5.954 -3.15,7.956 -3.15,8.015C-3.035,8.072 -2.864,8.13 -3.035,8.529C-3.15,8.873 -3.322,9.273 -3.322,9.273C-3.322,9.273 -1.089,8.873 -0.859,8.873C-0.632,8.818 -0.516,8.873 -0.516,9.102C-0.516,9.273 -0.573,11.564 -0.573,11.564L0,11.564Z" style="fill:rgb(239,63,54);"/>
        </g>
        <g transform="matrix(-2,0,0,2,253.03,1422.9)">
            <rect x="59.85" y="33.433" width="6.815" height="13.686" style="fill:rgb(239,63,54);"/>
        </g>
        <g transform="matrix(2,0,0,2,156.428,1489.8)">
            <path d="M0,5.617L0.982,5.617L0.982,3.472L2.478,3.472C4.082,3.479 4.39,2.439 4.39,1.744C4.39,1.04 4.082,0 2.478,0L0,0L0,5.617ZM0.982,0.805L2.439,0.805C2.958,0.805 3.406,0.991 3.406,1.736C3.406,2.447 2.862,2.666 2.422,2.666L0.982,2.666L0.982,0.805Z" style="fill:rgb(35,31,32);fill-rule:nonzero;"/>
        </g>
        <g transform="matrix(2,0,0,2,173.375,1501.26)">
            <path d="M0,-4.177L-0.896,-4.177L-0.896,-1.818C-0.896,-1.189 -1.148,-0.71 -1.897,-0.71C-2.385,-0.71 -2.675,-0.968 -2.675,-1.684L-2.675,-4.177L-3.572,-4.177L-3.572,-1.597C-3.572,-0.535 -3.115,0 -2.053,0C-1.606,0 -1.117,-0.269 -0.896,-0.677L-0.881,-0.677L-0.881,-0.112L0,-0.112L0,-4.177Z" style="fill:rgb(35,31,32);fill-rule:nonzero;"/>
        </g>
        <g transform="matrix(2,0,0,2,174.873,1490.03)">
            <path d="M0,5.505L0.85,5.505L0.85,4.947L0.865,4.947C1.133,5.481 1.723,5.617 2.273,5.617C3.477,5.617 4.028,4.585 4.028,3.493C4.028,2.304 3.406,1.329 2.125,1.329C1.667,1.329 1.157,1.573 0.913,1.967L0.897,1.967L0.897,-0.112L0,-0.112L0,5.505ZM3.132,3.477C3.132,4.185 2.825,4.907 2.006,4.907C1.282,4.907 0.865,4.297 0.865,3.477C0.865,2.611 1.251,2.036 2.006,2.036C2.747,2.036 3.132,2.736 3.132,3.477" style="fill:rgb(35,31,32);fill-rule:nonzero;"/>
        </g>
        <g transform="matrix(2,0,0,2,0,1406.84)">
            <rect x="92.026" y="41.481" width="0.894" height="5.617" style="fill:rgb(35,31,32);"/>
        </g>
        <g transform="matrix(2,0,0,2,0,1406.84)">
            <path d="M93.702,42.331L94.599,42.331L94.599,41.481L93.702,41.481L93.702,42.331ZM93.702,47.098L94.599,47.098L94.599,43.033L93.702,43.033L93.702,47.098Z" style="fill:rgb(35,31,32);fill-rule:nonzero;"/>
        </g>
        <g transform="matrix(2,0,0,2,197.997,1498.32)">
            <path d="M0,-1.346C-0.088,-2.345 -0.888,-2.817 -1.834,-2.817C-3.17,-2.817 -3.839,-1.857 -3.839,-0.63C-3.839,0.565 -3.139,1.471 -1.865,1.471C-0.819,1.471 -0.165,0.888 0,-0.167L-0.898,-0.167C-0.985,0.416 -1.346,0.761 -1.865,0.761C-2.644,0.761 -2.942,0.044 -2.942,-0.63C-2.942,-1.864 -2.29,-2.11 -1.825,-2.11C-1.33,-2.11 -0.968,-1.842 -0.898,-1.346L0,-1.346Z" style="fill:rgb(35,31,32);fill-rule:nonzero;"/>
        </g>
        <g transform="matrix(2,0,0,2,204.036,1489.8)">
            <path d="M0,5.617L0.984,5.617L0.984,3.085L3.54,3.085L3.54,5.617L4.523,5.617L4.523,0L3.54,0L3.54,2.236L0.984,2.236L0.984,0L0,0L0,5.617Z" style="fill:rgb(35,31,32);fill-rule:nonzero;"/>
        </g>
        <g transform="matrix(2,0,0,2,216.157,1497.69)">
            <path d="M0,-0.719C0.022,-1.325 0.448,-1.796 1.069,-1.796C1.676,-1.796 2.06,-1.285 2.092,-0.719L0,-0.719ZM2.989,-0.128C3.139,-1.346 2.352,-2.503 1.069,-2.503C-0.142,-2.503 -0.898,-1.512 -0.898,-0.355C-0.898,0.894 -0.182,1.784 1.093,1.784C1.982,1.784 2.738,1.289 2.934,0.401L2.086,0.401C1.926,0.846 1.612,1.074 1.093,1.074C0.346,1.074 0,0.51 0,-0.128L2.989,-0.128Z" style="fill:rgb(35,31,32);fill-rule:nonzero;"/>
        </g>
        <g transform="matrix(2,0,0,2,229.877,1498.91)">
            <path d="M0,-1.931C0,-2.788 -0.834,-3.109 -1.627,-3.109C-2.523,-3.109 -3.413,-2.803 -3.477,-1.757L-2.58,-1.757C-2.54,-2.196 -2.186,-2.403 -1.683,-2.403C-1.319,-2.403 -0.841,-2.315 -0.841,-1.851C-0.841,-1.325 -1.416,-1.395 -2.061,-1.279C-2.815,-1.192 -3.627,-1.026 -3.627,-0.011C-3.627,0.785 -2.965,1.178 -2.234,1.178C-1.754,1.178 -1.178,1.027 -0.824,0.683C-0.754,1.052 -0.494,1.178 -0.132,1.178C0.016,1.178 0.3,1.125 0.434,1.076L0.434,0.454C0.339,0.468 0.269,0.468 0.213,0.468C0.049,0.468 0,0.384 0,0.163L0,-1.931ZM-0.896,-0.302C-0.896,0.264 -1.51,0.468 -1.903,0.468C-2.218,0.468 -2.729,0.351 -2.729,-0.051C-2.729,-0.522 -2.383,-0.663 -1.997,-0.729C-1.603,-0.796 -1.171,-0.79 -0.896,-0.971L-0.896,-0.302Z" style="fill:rgb(35,31,32);fill-rule:nonzero;"/>
        </g>
        <g transform="matrix(2,0,0,2,0,1406.84)">
            <rect x="115.712" y="41.481" width="0.896" height="5.617" style="fill:rgb(35,31,32);"/>
        </g>
        <g transform="matrix(2,0,0,2,233.914,1497.35)">
            <path d="M0,-1.55L0.676,-1.55L0.676,0.849C0.692,1.526 0.866,1.888 1.8,1.888C1.997,1.888 2.186,1.856 2.383,1.84L2.383,1.147C2.258,1.179 2.131,1.179 2.007,1.179C1.604,1.179 1.573,0.99 1.573,0.621L1.573,-1.55L2.383,-1.55L2.383,-2.219L1.573,-2.219L1.573,-3.438L0.676,-3.438L0.676,-2.219L0,-2.219L0,-1.55Z" style="fill:rgb(35,31,32);fill-rule:nonzero;"/>
        </g>
        <g transform="matrix(2,0,0,2,239.534,1489.8)">
            <path d="M0,5.617L0.896,5.617L0.896,3.219C0.896,2.62 1.283,2.148 1.88,2.148C2.407,2.148 2.659,2.424 2.674,3.061L2.674,5.617L3.571,5.617L3.571,2.825C3.571,1.913 3.014,1.441 2.131,1.441C1.596,1.441 1.132,1.716 0.913,2.086L0.896,2.086L0.896,0L0,0L0,5.617Z" style="fill:rgb(35,31,32);fill-rule:nonzero;"/>
        </g>
        <g transform="matrix(2,0,0,2,155.118,1506.05)">
            <path d="M0,5.618L1.016,5.618L1.543,4.13L3.785,4.13L4.312,5.618L5.366,5.618L3.203,0L2.157,0L0,5.618ZM2.659,0.968L2.684,0.968L3.525,3.383L1.81,3.383L2.659,0.968Z" style="fill:rgb(35,31,32);fill-rule:nonzero;"/>
        </g>
        <g transform="matrix(2,0,0,2,173.751,1520.29)">
            <path d="M0,-5.568L-0.897,-5.568L-0.897,-5.011L-0.911,-5.011C-1.141,-5.466 -1.605,-5.68 -2.115,-5.68C-3.272,-5.68 -3.955,-4.736 -3.955,-3.643C-3.955,-2.477 -3.42,-1.501 -2.132,-1.501C-1.627,-1.501 -1.165,-1.768 -0.911,-2.217L-0.897,-2.217L-0.897,-1.597C-0.897,-0.926 -1.219,-0.555 -1.943,-0.555C-2.399,-0.555 -2.807,-0.645 -2.918,-1.153L-3.815,-1.153C-3.737,-0.201 -2.815,0.112 -1.997,0.112C-0.716,0.112 0,-0.495 0,-1.715L0,-5.568ZM-1.989,-2.211C-2.737,-2.211 -3.059,-2.888 -3.059,-3.555C-3.059,-4.231 -2.784,-4.973 -1.989,-4.973C-1.211,-4.973 -0.897,-4.325 -0.897,-3.627C-0.897,-2.933 -1.196,-2.211 -1.989,-2.211" style="fill:rgb(35,31,32);fill-rule:nonzero;"/>
        </g>
        <g transform="matrix(2,0,0,2,176.526,1513.93)">
            <path d="M0,-0.716C0.023,-1.322 0.448,-1.795 1.07,-1.795C1.676,-1.795 2.061,-1.281 2.091,-0.716L0,-0.716ZM2.988,-0.127C3.138,-1.345 2.352,-2.502 1.07,-2.502C-0.142,-2.502 -0.897,-1.512 -0.897,-0.355C-0.897,0.897 -0.181,1.786 1.093,1.786C1.982,1.786 2.737,1.291 2.934,0.399L2.084,0.399C1.927,0.85 1.612,1.076 1.093,1.076C0.346,1.076 0,0.511 0,-0.127L2.988,-0.127Z" style="fill:rgb(35,31,32);fill-rule:nonzero;"/>
        </g>
        <g transform="matrix(2,0,0,2,183.436,1508.93)">
            <path d="M0,4.178L0.897,4.178L0.897,1.776C0.897,1.18 1.282,0.706 1.88,0.706C2.406,0.706 2.659,0.983 2.674,1.622L2.674,4.178L3.57,4.178L3.57,1.385C3.57,0.471 3.014,0 2.132,0C1.596,0 1.132,0.274 0.864,0.724L0.85,0.706L0.85,0.111L0,0.111L0,4.178Z" style="fill:rgb(35,31,32);fill-rule:nonzero;"/>
        </g>
        <g transform="matrix(2,0,0,2,199.314,1514.56)">
            <path d="M0,-1.349C-0.087,-2.347 -0.89,-2.819 -1.833,-2.819C-3.171,-2.819 -3.838,-1.858 -3.838,-0.631C-3.838,0.564 -3.14,1.47 -1.864,1.47C-0.818,1.47 -0.166,0.886 0,-0.166L-0.897,-0.166C-0.984,0.416 -1.345,0.759 -1.864,0.759C-2.643,0.759 -2.941,0.043 -2.941,-0.631C-2.941,-1.866 -2.289,-2.112 -1.825,-2.112C-1.329,-2.112 -0.967,-1.844 -0.897,-1.349L0,-1.349Z" style="fill:rgb(35,31,32);fill-rule:nonzero;"/>
        </g>
        <g transform="matrix(2,0,0,2,202.525,1512.41)">
            <path d="M0,2.42L-0.101,2.734C-0.212,3.084 -0.314,3.303 -0.73,3.303C-0.873,3.303 -1.014,3.271 -1.156,3.246L-1.156,4.002C-0.951,4.035 -0.747,4.05 -0.534,4.05C0.402,4.05 0.615,3.389 0.906,2.658L2.486,-1.63L1.549,-1.63L0.52,1.403L0.505,1.403L-0.557,-1.63L-1.541,-1.63L0,2.42Z" style="fill:rgb(35,31,32);fill-rule:nonzero;"/>
        </g>
        <g transform="matrix(2,0,0,2,216.61,1508.93)">
            <path d="M0,4.288C1.305,4.288 2.053,3.389 2.053,2.14C2.053,0.896 1.305,0 0,0C-1.307,0 -2.054,0.896 -2.054,2.14C-2.054,3.389 -1.307,4.288 0,4.288M0,3.577C-0.803,3.577 -1.157,2.848 -1.157,2.14C-1.157,1.44 -0.803,0.706 0,0.706C0.803,0.706 1.156,1.44 1.156,2.14C1.156,2.848 0.803,3.577 0,3.577" style="fill:rgb(35,31,32);fill-rule:nonzero;"/>
        </g>
        <g transform="matrix(2,0,0,2,220.97,1512.85)">
            <path d="M0,-1.181L0.669,-1.181L0.669,2.218L1.565,2.218L1.565,-1.181L2.329,-1.181L2.329,-1.849L1.565,-1.849L1.565,-2.268C1.565,-2.606 1.762,-2.693 2.007,-2.693C2.188,-2.693 2.305,-2.675 2.422,-2.646L2.422,-3.345C2.282,-3.382 2.077,-3.399 1.794,-3.399C1.211,-3.399 0.669,-3.226 0.669,-2.187L0.669,-1.849L0,-1.849L0,-1.181Z" style="fill:rgb(35,31,32);fill-rule:nonzero;"/>
        </g>
        <g transform="matrix(2,0,0,2,240.905,1513.72)">
            <path d="M0,-2.05C-0.117,-3.259 -1.118,-3.958 -2.383,-3.968C-4.068,-3.968 -5.074,-2.63 -5.074,-1.027C-5.074,0.579 -4.068,1.918 -2.383,1.918C-1.023,1.918 -0.071,0.988 0.007,-0.358L-0.952,-0.358C-1.03,0.461 -1.51,1.112 -2.383,1.112C-3.587,1.112 -4.092,0.051 -4.092,-1.027C-4.092,-2.104 -3.587,-3.165 -2.383,-3.165C-1.566,-3.165 -1.148,-2.693 -0.984,-2.05L0,-2.05Z" style="fill:rgb(35,31,32);fill-rule:nonzero;"/>
        </g>
        <g transform="matrix(2,0,0,2,248.838,1515.14)">
            <path d="M0,-1.927C0,-2.784 -0.834,-3.108 -1.628,-3.108C-2.526,-3.108 -3.415,-2.8 -3.478,-1.753L-2.581,-1.753C-2.54,-2.195 -2.187,-2.401 -1.684,-2.401C-1.322,-2.401 -0.842,-2.313 -0.842,-1.847C-0.842,-1.321 -1.415,-1.393 -2.061,-1.274C-2.817,-1.188 -3.626,-1.023 -3.626,-0.006C-3.626,0.787 -2.967,1.181 -2.235,1.181C-1.754,1.181 -1.181,1.033 -0.826,0.686C-0.756,1.054 -0.495,1.181 -0.134,1.181C0.017,1.181 0.299,1.127 0.432,1.079L0.432,0.456C0.338,0.47 0.268,0.47 0.212,0.47C0.047,0.47 0,0.385 0,0.164L0,-1.927ZM-0.898,-0.298C-0.898,0.267 -1.51,0.47 -1.904,0.47C-2.218,0.47 -2.73,0.355 -2.73,-0.044C-2.73,-0.518 -2.383,-0.662 -1.998,-0.722C-1.606,-0.795 -1.171,-0.786 -0.898,-0.968L-0.898,-0.298Z" style="fill:rgb(35,31,32);fill-rule:nonzero;"/>
        </g>
        <g transform="matrix(2,0,0,2,250.336,1508.93)">
            <path d="M0,4.178L0.897,4.178L0.897,1.776C0.897,1.18 1.282,0.706 1.88,0.706C2.406,0.706 2.659,0.983 2.674,1.622L2.674,4.178L3.572,4.178L3.572,1.385C3.572,0.471 3.012,0 2.132,0C1.596,0 1.133,0.274 0.865,0.724L0.85,0.706L0.85,0.111L0,0.111L0,4.178Z" style="fill:rgb(35,31,32);fill-rule:nonzero;"/>
        </g>
        <g transform="matrix(2,0,0,2,265.745,1515.14)">
            <path d="M0,-1.927C0,-2.784 -0.835,-3.108 -1.629,-3.108C-2.527,-3.108 -3.415,-2.8 -3.479,-1.753L-2.582,-1.753C-2.542,-2.195 -2.189,-2.401 -1.686,-2.401C-1.323,-2.401 -0.843,-2.313 -0.843,-1.847C-0.843,-1.321 -1.418,-1.393 -2.062,-1.274C-2.817,-1.188 -3.628,-1.023 -3.628,-0.006C-3.628,0.787 -2.967,1.181 -2.235,1.181C-1.756,1.181 -1.181,1.033 -0.826,0.686C-0.756,1.054 -0.496,1.181 -0.134,1.181C0.015,1.181 0.298,1.127 0.432,1.079L0.432,0.456C0.337,0.47 0.266,0.47 0.211,0.47C0.046,0.47 0,0.385 0,0.164L0,-1.927ZM-0.897,-0.298C-0.897,0.267 -1.512,0.47 -1.905,0.47C-2.22,0.47 -2.732,0.355 -2.732,-0.044C-2.732,-0.518 -2.385,-0.662 -1.999,-0.722C-1.606,-0.795 -1.174,-0.786 -0.897,-0.968L-0.897,-0.298Z" style="fill:rgb(35,31,32);fill-rule:nonzero;"/>
        </g>
        <g transform="matrix(2,0,0,2,274.901,1517.5)">
            <path d="M0,-5.728L-0.895,-5.728L-0.895,-3.653L-0.912,-3.653C-1.187,-4.099 -1.754,-4.289 -2.265,-4.289C-3.154,-4.289 -4.027,-3.643 -4.027,-2.173C-4.027,-0.953 -3.405,0 -2.123,0C-1.611,0 -1.101,-0.197 -0.865,-0.662L-0.849,-0.662L-0.849,-0.11L0,-0.11L0,-5.728ZM-3.13,-2.101C-3.13,-2.834 -2.832,-3.583 -1.989,-3.583C-1.297,-3.583 -0.865,-3.045 -0.865,-2.149C-0.865,-1.44 -1.203,-0.712 -2.006,-0.712C-2.784,-0.712 -3.13,-1.402 -3.13,-2.101" style="fill:rgb(35,31,32);fill-rule:nonzero;"/>
        </g>
        <g transform="matrix(2,0,0,2,283.23,1515.14)">
            <path d="M0,-1.927C0,-2.784 -0.833,-3.108 -1.628,-3.108C-2.525,-3.108 -3.415,-2.8 -3.478,-1.753L-2.581,-1.753C-2.542,-2.195 -2.186,-2.401 -1.684,-2.401C-1.322,-2.401 -0.841,-2.313 -0.841,-1.847C-0.841,-1.321 -1.417,-1.393 -2.062,-1.274C-2.817,-1.188 -3.628,-1.023 -3.628,-0.006C-3.628,0.787 -2.966,1.181 -2.234,1.181C-1.755,1.181 -1.181,1.033 -0.827,0.686C-0.756,1.054 -0.496,1.181 -0.133,1.181C0.015,1.181 0.299,1.127 0.433,1.079L0.433,0.456C0.338,0.47 0.267,0.47 0.212,0.47C0.048,0.47 0,0.385 0,0.164L0,-1.927ZM-0.898,-0.298C-0.898,0.267 -1.511,0.47 -1.905,0.47C-2.219,0.47 -2.731,0.355 -2.731,-0.044C-2.731,-0.518 -2.383,-0.662 -1.999,-0.722C-1.606,-0.795 -1.172,-0.786 -0.898,-0.968L-0.898,-0.298Z" style="fill:rgb(35,31,32);fill-rule:nonzero;"/>
        </g>
        <g transform="matrix(2,0,0,2,305.272,1489.8)">
            <path d="M0,5.617L1.018,5.617L1.543,4.132L3.785,4.132L4.313,5.617L5.367,5.617L3.203,0L2.159,0L0,5.617ZM2.66,0.97L2.684,0.97L3.526,3.382L1.811,3.382L2.66,0.97Z" style="fill:rgb(35,31,32);fill-rule:nonzero;"/>
        </g>
        <g transform="matrix(2,0,0,2,323.907,1504.05)">
            <path d="M0,-5.571L-0.896,-5.571L-0.896,-5.012L-0.913,-5.012C-1.14,-5.47 -1.604,-5.681 -2.115,-5.681C-3.272,-5.681 -3.955,-4.739 -3.955,-3.644C-3.955,-2.481 -3.422,-1.506 -2.131,-1.506C-1.629,-1.506 -1.164,-1.771 -0.913,-2.222L-0.896,-2.222L-0.896,-1.597C-0.896,-0.93 -1.218,-0.559 -1.942,-0.559C-2.399,-0.559 -2.807,-0.644 -2.919,-1.155L-3.815,-1.155C-3.737,-0.205 -2.815,0.11 -1.997,0.11C-0.716,0.11 0,-0.496 0,-1.717L0,-5.571ZM-1.99,-2.212C-2.737,-2.212 -3.061,-2.889 -3.061,-3.556C-3.061,-4.234 -2.785,-4.975 -1.99,-4.975C-1.211,-4.975 -0.896,-4.329 -0.896,-3.627C-0.896,-2.938 -1.197,-2.212 -1.99,-2.212" style="fill:rgb(35,31,32);fill-rule:nonzero;"/>
        </g>
        <g transform="matrix(2,0,0,2,326.68,1497.69)">
            <path d="M0,-0.719C0.025,-1.325 0.448,-1.796 1.07,-1.796C1.676,-1.796 2.061,-1.285 2.092,-0.719L0,-0.719ZM2.989,-0.128C3.138,-1.346 2.353,-2.503 1.07,-2.503C-0.142,-2.503 -0.898,-1.512 -0.898,-0.355C-0.898,0.894 -0.181,1.784 1.094,1.784C1.982,1.784 2.737,1.289 2.936,0.401L2.084,0.401C1.926,0.846 1.612,1.074 1.094,1.074C0.346,1.074 0,0.51 0,-0.128L2.989,-0.128Z" style="fill:rgb(35,31,32);fill-rule:nonzero;"/>
        </g>
        <g transform="matrix(2,0,0,2,333.588,1492.69)">
            <path d="M0,4.176L0.898,4.176L0.898,1.778C0.898,1.179 1.283,0.707 1.88,0.707C2.408,0.707 2.659,0.983 2.676,1.62L2.676,4.176L3.572,4.176L3.572,1.384C3.572,0.472 3.014,0 2.133,0C1.599,0 1.133,0.275 0.866,0.725L0.852,0.707L0.852,0.111L0,0.111L0,4.176Z" style="fill:rgb(35,31,32);fill-rule:nonzero;"/>
        </g>
        <g transform="matrix(2,0,0,2,349.468,1498.32)">
            <path d="M0,-1.346C-0.086,-2.345 -0.889,-2.817 -1.832,-2.817C-3.17,-2.817 -3.839,-1.857 -3.839,-0.63C-3.839,0.565 -3.14,1.471 -1.865,1.471C-0.817,1.471 -0.166,0.888 0,-0.167L-0.895,-0.167C-0.983,0.416 -1.345,0.761 -1.865,0.761C-2.642,0.761 -2.941,0.044 -2.941,-0.63C-2.941,-1.864 -2.29,-2.11 -1.825,-2.11C-1.327,-2.11 -0.967,-1.842 -0.895,-1.346L0,-1.346Z" style="fill:rgb(35,31,32);fill-rule:nonzero;"/>
        </g>
        <g transform="matrix(2,0,0,2,351.893,1497.69)">
            <path d="M0,-0.719C0.025,-1.325 0.448,-1.796 1.07,-1.796C1.676,-1.796 2.063,-1.285 2.094,-0.719L0,-0.719ZM2.991,-0.128C3.138,-1.346 2.354,-2.503 1.07,-2.503C-0.141,-2.503 -0.895,-1.512 -0.895,-0.355C-0.895,0.894 -0.18,1.784 1.094,1.784C1.983,1.784 2.739,1.289 2.936,0.401L2.086,0.401C1.928,0.846 1.614,1.074 1.094,1.074C0.347,1.074 0,0.51 0,-0.128L2.991,-0.128Z" style="fill:rgb(35,31,32);fill-rule:nonzero;"/>
        </g>
        <g transform="matrix(2,0,0,2,371.279,1501.26)">
            <path d="M0,-5.729L-0.897,-5.729L-0.897,-3.65L-0.912,-3.65C-1.189,-4.1 -1.755,-4.288 -2.266,-4.288C-3.155,-4.288 -4.028,-3.643 -4.028,-2.17C-4.028,-0.954 -3.406,0 -2.126,0C-1.613,0 -1.102,-0.198 -0.866,-0.66L-0.851,-0.66L-0.851,-0.112L0,-0.112L0,-5.729ZM-3.132,-2.101C-3.132,-2.832 -2.832,-3.581 -1.992,-3.581C-1.298,-3.581 -0.866,-3.048 -0.866,-2.149C-0.866,-1.441 -1.205,-0.71 -2.006,-0.71C-2.785,-0.71 -3.132,-1.4 -3.132,-2.101" style="fill:rgb(35,31,32);fill-rule:nonzero;"/>
        </g>
        <g transform="matrix(2,0,0,2,374.193,1497.69)">
            <path d="M0,-0.719C0.023,-1.325 0.448,-1.796 1.07,-1.796C1.676,-1.796 2.061,-1.285 2.094,-0.719L0,-0.719ZM2.991,-0.128C3.138,-1.346 2.352,-2.503 1.07,-2.503C-0.141,-2.503 -0.897,-1.512 -0.897,-0.355C-0.897,0.894 -0.181,1.784 1.094,1.784C1.982,1.784 2.737,1.289 2.934,0.401L2.086,0.401C1.927,0.846 1.612,1.074 1.094,1.074C0.346,1.074 0,0.51 0,-0.128L2.991,-0.128Z" style="fill:rgb(35,31,32);fill-rule:nonzero;"/>
        </g>
        <g transform="matrix(2,0,0,2,0,1406.84)">
            <rect x="193.138" y="41.481" width="0.897" height="5.617" style="fill:rgb(35,31,32);"/>
        </g>
        <g transform="matrix(2,0,0,2,396.399,1498.91)">
            <path d="M0,-1.931C0,-2.788 -0.836,-3.109 -1.629,-3.109C-2.526,-3.109 -3.415,-2.803 -3.479,-1.757L-2.582,-1.757C-2.542,-2.196 -2.188,-2.403 -1.685,-2.403C-1.323,-2.403 -0.843,-2.315 -0.843,-1.851C-0.843,-1.325 -1.418,-1.395 -2.062,-1.279C-2.817,-1.192 -3.629,-1.026 -3.629,-0.011C-3.629,0.785 -2.967,1.178 -2.235,1.178C-1.756,1.178 -1.181,1.027 -0.826,0.683C-0.756,1.052 -0.498,1.178 -0.135,1.178C0.014,1.178 0.298,1.125 0.432,1.076L0.432,0.454C0.338,0.468 0.267,0.468 0.212,0.468C0.046,0.468 0,0.384 0,0.163L0,-1.931ZM-0.897,-0.302C-0.897,0.264 -1.512,0.468 -1.905,0.468C-2.219,0.468 -2.73,0.351 -2.73,-0.051C-2.73,-0.522 -2.385,-0.663 -1.999,-0.729C-1.606,-0.796 -1.174,-0.79 -0.897,-0.971L-0.897,-0.302Z" style="fill:rgb(35,31,32);fill-rule:nonzero;"/>
        </g>
        <g transform="matrix(2,0,0,2,401.953,1495.52)">
            <path d="M0,1.454C0.014,2.414 0.777,2.871 1.8,2.871C2.642,2.871 3.617,2.516 3.617,1.55C3.617,0.747 2.957,0.508 2.304,0.361C1.643,0.21 0.982,0.147 0.982,-0.292C0.982,-0.647 1.462,-0.71 1.721,-0.71C2.115,-0.71 2.47,-0.593 2.547,-0.166L3.485,-0.166C3.373,-1.072 2.62,-1.417 1.784,-1.417C1.044,-1.417 0.085,-1.142 0.085,-0.252C0.085,0.574 0.731,0.811 1.39,0.95C2.045,1.102 2.697,1.154 2.72,1.628C2.744,2.091 2.155,2.161 1.817,2.161C1.335,2.161 0.943,1.973 0.895,1.454L0,1.454Z" style="fill:rgb(35,31,32);fill-rule:nonzero;"/>
        </g>
        <g transform="matrix(2,0,0,2,416.928,1498.91)">
            <path d="M0,-1.931C0,-2.788 -0.834,-3.109 -1.627,-3.109C-2.523,-3.109 -3.413,-2.803 -3.474,-1.757L-2.579,-1.757C-2.54,-2.196 -2.185,-2.403 -1.682,-2.403C-1.319,-2.403 -0.84,-2.315 -0.84,-1.851C-0.84,-1.325 -1.414,-1.395 -2.058,-1.279C-2.815,-1.192 -3.624,-1.026 -3.624,-0.011C-3.624,0.785 -2.965,1.178 -2.234,1.178C-1.754,1.178 -1.178,1.027 -0.824,0.683C-0.754,1.052 -0.494,1.178 -0.131,1.178C0.016,1.178 0.301,1.125 0.434,1.076L0.434,0.454C0.341,0.468 0.27,0.468 0.215,0.468C0.048,0.468 0,0.384 0,0.163L0,-1.931ZM-0.896,-0.302C-0.896,0.264 -1.509,0.468 -1.902,0.468C-2.216,0.468 -2.728,0.351 -2.728,-0.051C-2.728,-0.522 -2.381,-0.663 -1.995,-0.729C-1.603,-0.796 -1.171,-0.79 -0.896,-0.971L-0.896,-0.302Z" style="fill:rgb(35,31,32);fill-rule:nonzero;"/>
        </g>
        <g transform="matrix(2,0,0,2,418.745,1492.69)">
            <path d="M0,4.176L0.897,4.176L0.897,1.778C0.897,1.179 1.282,0.707 1.88,0.707C2.407,0.707 2.658,0.983 2.675,1.62L2.675,4.176L3.572,4.176L3.572,1.384C3.572,0.472 3.013,0 2.132,0C1.596,0 1.133,0.275 0.864,0.725L0.85,0.707L0.85,0.111L0,0.111L0,4.176Z" style="fill:rgb(35,31,32);fill-rule:nonzero;"/>
        </g>
        <g transform="matrix(2,0,0,2,426.522,1497.35)">
            <path d="M0,-1.55L0.674,-1.55L0.674,0.849C0.691,1.526 0.865,1.888 1.8,1.888C1.996,1.888 2.186,1.856 2.383,1.84L2.383,1.147C2.257,1.179 2.131,1.179 2.006,1.179C1.604,1.179 1.573,0.99 1.573,0.621L1.573,-1.55L2.383,-1.55L2.383,-2.219L1.573,-2.219L1.573,-3.438L0.674,-3.438L0.674,-2.219L0,-2.219L0,-1.55Z" style="fill:rgb(35,31,32);fill-rule:nonzero;"/>
        </g>
        <g transform="matrix(2,0,0,2,433.543,1494.55)">
            <path d="M0,0.855C0.022,0.249 0.449,-0.222 1.068,-0.222C1.674,-0.222 2.06,0.289 2.091,0.855L0,0.855ZM2.989,1.446C3.138,0.228 2.352,-0.929 1.068,-0.929C-0.142,-0.929 -0.898,0.062 -0.898,1.219C-0.898,2.468 -0.182,3.358 1.093,3.358C1.981,3.358 2.737,2.863 2.933,1.975L2.085,1.975C1.927,2.42 1.613,2.648 1.093,2.648C0.345,2.648 0,2.084 0,1.446L2.989,1.446ZM0.424,-1.38L1.076,-1.38L2.193,-2.503L1.132,-2.503L0.424,-1.38Z" style="fill:rgb(35,31,32);fill-rule:nonzero;"/>
        </g>
        <g transform="matrix(2,0,0,2,306.377,1508.93)">
            <path d="M0,5.683L0.897,5.683L0.897,3.65L0.913,3.65C1.195,4.101 1.754,4.289 2.275,4.289C3.477,4.289 4.028,3.257 4.028,2.164C4.028,0.974 3.406,0 2.125,0C1.606,0 1.116,0.196 0.866,0.662L0.85,0.662L0.85,0.112L0,0.112L0,5.683ZM3.132,2.148C3.132,2.856 2.825,3.577 2.007,3.577C1.283,3.577 0.866,2.967 0.866,2.148C0.866,1.283 1.25,0.706 2.007,0.706C2.746,0.706 3.132,1.41 3.132,2.148" style="fill:rgb(35,31,32);fill-rule:nonzero;"/>
        </g>
        <g transform="matrix(2,0,0,2,322.649,1517.5)">
            <path d="M0,-4.177L-0.897,-4.177L-0.897,-1.817C-0.897,-1.188 -1.148,-0.711 -1.897,-0.711C-2.385,-0.711 -2.676,-0.968 -2.676,-1.684L-2.676,-4.177L-3.573,-4.177L-3.573,-1.598C-3.573,-0.535 -3.115,0 -2.053,0C-1.606,0 -1.117,-0.269 -0.897,-0.676L-0.883,-0.676L-0.883,-0.11L0,-0.11L0,-4.177Z" style="fill:rgb(35,31,32);fill-rule:nonzero;"/>
        </g>
        <g transform="matrix(2,0,0,2,324.147,1506.27)">
            <path d="M0,5.508L0.85,5.508L0.85,4.948L0.865,4.948C1.133,5.484 1.723,5.618 2.273,5.618C3.478,5.618 4.028,4.587 4.028,3.493C4.028,2.304 3.406,1.33 2.125,1.33C1.667,1.33 1.156,1.574 0.913,1.966L0.897,1.966L0.897,-0.11L0,-0.11L0,5.508ZM3.131,3.477C3.131,4.185 2.824,4.907 2.006,4.907C1.281,4.907 0.865,4.297 0.865,3.477C0.865,2.612 1.251,2.036 2.006,2.036C2.747,2.036 3.131,2.739 3.131,3.477" style="fill:rgb(35,31,32);fill-rule:nonzero;"/>
        </g>
        <g transform="matrix(2,0,0,2,0,1439.33)">
            <rect x="166.66" y="33.359" width="0.898" height="5.618" style="fill:rgb(35,31,32);"/>
        </g>
        <g transform="matrix(2,0,0,2,0,1439.33)">
            <path d="M168.338,34.209L169.235,34.209L169.235,33.359L168.338,33.359L168.338,34.209ZM168.338,38.976L169.235,38.976L169.235,34.909L168.338,34.909L168.338,38.976Z" style="fill:rgb(35,31,32);fill-rule:nonzero;"/>
        </g>
        <g transform="matrix(2,0,0,2,347.648,1520.07)">
            <path d="M0,-5.459L-0.851,-5.459L-0.851,-4.909L-0.866,-4.909C-1.117,-5.375 -1.606,-5.571 -2.125,-5.571C-3.406,-5.571 -4.028,-4.596 -4.028,-3.407C-4.028,-2.314 -3.476,-1.282 -2.274,-1.282C-1.755,-1.282 -1.196,-1.47 -0.913,-1.921L-0.897,-1.921L-0.897,0.112L0,0.112L0,-5.459ZM-3.131,-3.423C-3.131,-4.161 -2.747,-4.864 -2.007,-4.864C-1.258,-4.864 -0.866,-4.301 -0.866,-3.423C-0.866,-2.571 -1.228,-1.993 -2.007,-1.993C-2.826,-1.993 -3.131,-2.715 -3.131,-3.423" style="fill:rgb(35,31,32);fill-rule:nonzero;"/>
        </g>
        <g transform="matrix(2,0,0,2,356.305,1517.5)">
            <path d="M0,-4.177L-0.897,-4.177L-0.897,-1.817C-0.897,-1.188 -1.149,-0.711 -1.897,-0.711C-2.385,-0.711 -2.676,-0.968 -2.676,-1.684L-2.676,-4.177L-3.573,-4.177L-3.573,-1.598C-3.573,-0.535 -3.115,0 -2.054,0C-1.606,0 -1.117,-0.269 -0.897,-0.676L-0.881,-0.676L-0.881,-0.11L0,-0.11L0,-4.177Z" style="fill:rgb(35,31,32);fill-rule:nonzero;"/>
        </g>
        <g transform="matrix(2,0,0,2,359.155,1513.93)">
            <path d="M0,-0.716C0.024,-1.322 0.449,-1.795 1.071,-1.795C1.676,-1.795 2.062,-1.281 2.093,-0.716L0,-0.716ZM2.99,-0.127C3.14,-1.345 2.352,-2.502 1.071,-2.502C-0.14,-2.502 -0.897,-1.512 -0.897,-0.355C-0.897,0.897 -0.181,1.786 1.094,1.786C1.984,1.786 2.738,1.291 2.935,0.399L2.085,0.399C1.927,0.85 1.613,1.076 1.094,1.076C0.348,1.076 0,0.511 0,-0.127L2.99,-0.127Z" style="fill:rgb(35,31,32);fill-rule:nonzero;"/>
        </g>
        <g transform="matrix(2,0,0,2,378.54,1517.5)">
            <path d="M0,-5.728L-0.897,-5.728L-0.897,-3.653L-0.912,-3.653C-1.189,-4.099 -1.756,-4.289 -2.266,-4.289C-3.155,-4.289 -4.028,-3.643 -4.028,-2.173C-4.028,-0.953 -3.406,0 -2.125,0C-1.613,0 -1.102,-0.197 -0.866,-0.662L-0.85,-0.662L-0.85,-0.11L0,-0.11L0,-5.728ZM-3.132,-2.101C-3.132,-2.834 -2.832,-3.583 -1.991,-3.583C-1.298,-3.583 -0.866,-3.045 -0.866,-2.149C-0.866,-1.44 -1.205,-0.712 -2.007,-0.712C-2.784,-0.712 -3.132,-1.402 -3.132,-2.101" style="fill:rgb(35,31,32);fill-rule:nonzero;"/>
        </g>
        <g transform="matrix(2,0,0,2,387.197,1517.5)">
            <path d="M0,-4.177L-0.897,-4.177L-0.897,-1.817C-0.897,-1.188 -1.15,-0.711 -1.897,-0.711C-2.383,-0.711 -2.675,-0.968 -2.675,-1.684L-2.675,-4.177L-3.572,-4.177L-3.572,-1.598C-3.572,-0.535 -3.115,0 -2.054,0C-1.606,0 -1.118,-0.269 -0.897,-0.676L-0.882,-0.676L-0.882,-0.11L0,-0.11L0,-4.177Z" style="fill:rgb(35,31,32);fill-rule:nonzero;"/>
        </g>
        <g transform="matrix(2,0,0,2,403.262,1513.72)">
            <path d="M0,-2.05C-0.119,-3.259 -1.117,-3.958 -2.385,-3.968C-4.068,-3.968 -5.075,-2.63 -5.075,-1.027C-5.075,0.579 -4.068,1.918 -2.385,1.918C-1.023,1.918 -0.072,0.988 0.006,-0.358L-0.953,-0.358C-1.033,0.461 -1.511,1.112 -2.385,1.112C-3.588,1.112 -4.091,0.051 -4.091,-1.027C-4.091,-2.104 -3.588,-3.165 -2.385,-3.165C-1.566,-3.165 -1.15,-2.693 -0.984,-2.05L0,-2.05Z" style="fill:rgb(35,31,32);fill-rule:nonzero;"/>
        </g>
        <g transform="matrix(2,0,0,2,411.194,1515.14)">
            <path d="M0,-1.927C0,-2.784 -0.835,-3.108 -1.629,-3.108C-2.526,-3.108 -3.414,-2.8 -3.478,-1.753L-2.581,-1.753C-2.541,-2.195 -2.186,-2.401 -1.684,-2.401C-1.322,-2.401 -0.841,-2.313 -0.841,-1.847C-0.841,-1.321 -1.417,-1.393 -2.061,-1.274C-2.816,-1.188 -3.627,-1.023 -3.627,-0.006C-3.627,0.787 -2.967,1.181 -2.234,1.181C-1.755,1.181 -1.18,1.033 -0.827,0.686C-0.755,1.054 -0.496,1.181 -0.134,1.181C0.015,1.181 0.299,1.127 0.433,1.079L0.433,0.456C0.338,0.47 0.267,0.47 0.212,0.47C0.046,0.47 0,0.385 0,0.164L0,-1.927ZM-0.897,-0.298C-0.897,0.267 -1.511,0.47 -1.905,0.47C-2.218,0.47 -2.73,0.355 -2.73,-0.044C-2.73,-0.518 -2.383,-0.662 -1.997,-0.722C-1.606,-0.795 -1.172,-0.786 -0.897,-0.968L-0.897,-0.298Z" style="fill:rgb(35,31,32);fill-rule:nonzero;"/>
        </g>
        <g transform="matrix(2,0,0,2,412.689,1508.93)">
            <path d="M0,4.178L0.899,4.178L0.899,1.776C0.899,1.18 1.284,0.706 1.882,0.706C2.409,0.706 2.659,0.983 2.676,1.622L2.676,4.178L3.573,4.178L3.573,1.385C3.573,0.471 3.014,0 2.133,0C1.598,0 1.134,0.274 0.867,0.724L0.851,0.706L0.851,0.111L0,0.111L0,4.178Z" style="fill:rgb(35,31,32);fill-rule:nonzero;"/>
        </g>
        <g transform="matrix(2,0,0,2,428.098,1515.14)">
            <path d="M0,-1.927C0,-2.784 -0.833,-3.108 -1.628,-3.108C-2.526,-3.108 -3.414,-2.8 -3.477,-1.753L-2.58,-1.753C-2.54,-2.195 -2.188,-2.401 -1.683,-2.401C-1.322,-2.401 -0.841,-2.313 -0.841,-1.847C-0.841,-1.321 -1.417,-1.393 -2.061,-1.274C-2.816,-1.188 -3.627,-1.023 -3.627,-0.006C-3.627,0.787 -2.966,1.181 -2.235,1.181C-1.755,1.181 -1.178,1.033 -0.825,0.686C-0.756,1.054 -0.496,1.181 -0.134,1.181C0.015,1.181 0.299,1.127 0.434,1.079L0.434,0.456C0.338,0.47 0.267,0.47 0.212,0.47C0.046,0.47 0,0.385 0,0.164L0,-1.927ZM-0.897,-0.298C-0.897,0.267 -1.511,0.47 -1.903,0.47C-2.218,0.47 -2.73,0.355 -2.73,-0.044C-2.73,-0.518 -2.383,-0.662 -1.997,-0.722C-1.606,-0.795 -1.171,-0.786 -0.897,-0.968L-0.897,-0.298Z" style="fill:rgb(35,31,32);fill-rule:nonzero;"/>
        </g>
        <g transform="matrix(2,0,0,2,437.259,1517.5)">
            <path d="M0,-5.728L-0.898,-5.728L-0.898,-3.653L-0.913,-3.653C-1.189,-4.099 -1.754,-4.289 -2.266,-4.289C-3.156,-4.289 -4.027,-3.643 -4.027,-2.173C-4.027,-0.953 -3.407,0 -2.125,0C-1.614,0 -1.102,-0.197 -0.865,-0.662L-0.851,-0.662L-0.851,-0.11L0,-0.11L0,-5.728ZM-3.131,-2.101C-3.131,-2.834 -2.832,-3.583 -1.99,-3.583C-1.298,-3.583 -0.865,-3.045 -0.865,-2.149C-0.865,-1.44 -1.204,-0.712 -2.006,-0.712C-2.785,-0.712 -3.131,-1.402 -3.131,-2.101" style="fill:rgb(35,31,32);fill-rule:nonzero;"/>
        </g>
        <g transform="matrix(2,0,0,2,445.585,1515.14)">
            <path d="M0,-1.927C0,-2.784 -0.835,-3.108 -1.629,-3.108C-2.526,-3.108 -3.414,-2.8 -3.478,-1.753L-2.581,-1.753C-2.541,-2.195 -2.188,-2.401 -1.683,-2.401C-1.322,-2.401 -0.843,-2.313 -0.843,-1.847C-0.843,-1.321 -1.417,-1.393 -2.062,-1.274C-2.817,-1.188 -3.627,-1.023 -3.627,-0.006C-3.627,0.787 -2.967,1.181 -2.235,1.181C-1.755,1.181 -1.181,1.033 -0.826,0.686C-0.755,1.054 -0.496,1.181 -0.134,1.181C0.015,1.181 0.298,1.127 0.432,1.079L0.432,0.456C0.338,0.47 0.267,0.47 0.212,0.47C0.047,0.47 0,0.385 0,0.164L0,-1.927ZM-0.897,-0.298C-0.897,0.267 -1.511,0.47 -1.904,0.47C-2.218,0.47 -2.73,0.355 -2.73,-0.044C-2.73,-0.518 -2.385,-0.662 -1.997,-0.722C-1.606,-0.795 -1.174,-0.786 -0.897,-0.968L-0.897,-0.298Z" style="fill:rgb(35,31,32);fill-rule:nonzero;"/>
        </g>
    </g>
</svg>
